<?xml version="1.0" encoding="UTF-8" standalone="no"?>
<svg width="21px" height="21px" viewBox="0 0 21 21" version="1.1" xmlns="http://www.w3.org/2000/svg" xmlns:xlink="http://www.w3.org/1999/xlink">
    <!-- Generator: Sketch 47 (45396) - http://www.bohemiancoding.com/sketch -->
    <title>Group 5</title>
    <desc>Created with Sketch.</desc>
    <defs>
        <circle id="path-1" cx="10" cy="10" r="10"></circle>
    </defs>
    <g id="Site" stroke="none" stroke-width="1" fill="none" fill-rule="evenodd">
        <g id="Resposta-enviada-com-sucesso" transform="translate(-861.000000, -173.000000)">
            <g id="Group" transform="translate(367.000000, 40.000000)">
                <g id="Group-26" transform="translate(494.400000, 133.600000)">
                    <g id="Group-5">
                        <g id="Oval-11">
                            <use fill="#FFFFFF" fill-rule="evenodd" xlink:href="#path-1"></use>
                            <circle stroke="#25D193" stroke-width="1.6" cx="10" cy="10" r="9.2"></circle>
                        </g>
                        <path d="M15.8043559,8.54912222 L9.91155579,14.3848093 C9.77368914,14.5206648 9.60784955,14.5889223 9.41203895,14.5889223 C9.22405411,14.5889223 9.06154464,14.5206648 8.92351148,14.3848093 L4.99514458,10.4947909 C4.86493719,10.3653654 4.8,10.2042843 4.8,10.0110529 C4.8,9.81023736 4.86493719,9.64536415 4.99514458,9.51643331 L5.98235635,8.54912222 C6.120223,8.4132667 6.28289898,8.34500919 6.47088382,8.34500919 C6.65953468,8.34500919 6.82204415,8.4132667 6.95941128,8.54912222 L9.41203895,10.9778694 L13.8400892,6.60411303 C13.9772898,6.46825751 14.1404653,6.4 14.3284502,6.4 C14.516435,6.4 14.679777,6.46825751 14.8169776,6.60411303 L15.8043559,7.57142412 C15.9350628,7.70035496 16,7.86522817 16,8.06538424 C16,8.25927512 15.9350628,8.42035624 15.8043559,8.54912222 L15.8043559,8.54912222 Z" id="Path" fill="#25D193"></path>
                    </g>
                </g>
            </g>
        </g>
    </g>
</svg>