<?xml version="1.0" encoding="UTF-8" standalone="no"?>
<svg width="20px" height="16px" viewBox="0 0 20 16" version="1.1" xmlns="http://www.w3.org/2000/svg" xmlns:xlink="http://www.w3.org/1999/xlink">
    <!-- Generator: Sketch 47 (45396) - http://www.bohemiancoding.com/sketch -->
    <title>Group 10</title>
    <desc>Created with Sketch.</desc>
    <defs></defs>
    <g id="Colega-Inspirador" stroke="none" stroke-width="1" fill="none" fill-rule="evenodd">
        <g id="Pagina-de-resposta-eNPS-+-Colega" transform="translate(-875.000000, -150.000000)" fill-rule="nonzero" fill="#FFFFFF">
            <g id="Group-10" transform="translate(875.200000, 150.000000)">
                <g id="Group-3">
                    <g id="Group-Copy">
                        <path d="M9.30916279,10.5468645 C12.0959871,10.5236857 15.4360246,8.27523626 17.5751843,5.74782702 C15.0429014,2.86495591 12.2447037,0.993906809 9.3230464,0.926350515 C6.35486613,0.926350515 3.8340585,2.56759161 0.909061836,5.75421521 C3.41012358,8.66904996 6.63109298,10.5995284 9.30916279,10.5468645 Z M0.224708178,6.36397039 C-0.0825591481,6.00586908 -0.0737204303,5.46881903 0.245157977,5.12141848 C3.47601564,1.60157608 6.18317521,0 9.3230464,0 C12.4065459,0.0710600537 15.402762,1.88568852 18.2525337,5.13000392 C18.5572279,5.47688229 18.5619544,6.00031084 18.2635758,6.35284403 C15.7788519,9.28853605 12.2263958,11.4465054 9.32165294,11.4731398 C6.39313276,11.528357 2.94208827,9.53091095 0.224708178,6.36397039 Z" id="Combined-Shape"></path>
                    </g>
                </g>
                <g id="Group-8" transform="translate(0.000000, 8.960000)">
                    <path d="M17.1219437,0.6512229 L18.3244517,2.00814975 C18.4663591,2.16828009 18.7091612,2.18120877 18.8667654,2.03702676 C19.0243696,1.89284475 19.0370943,1.64615085 18.8951869,1.48602051 L17.6926789,0.12909366 C17.5507714,-0.0310366831 17.3079693,-0.0439653628 17.1503651,0.100216646 C16.9927609,0.244398654 16.9800362,0.491092557 17.1219437,0.6512229 Z" id="Line-4"></path>
                    <path d="M14.7966352,2.49770317 L15.878169,3.95595185 C16.0058004,4.12803914 16.2465696,4.16241941 16.4159421,4.03274234 C16.5853146,3.90306527 16.6191525,3.65843692 16.4915211,3.48634963 L15.4099873,2.02810094 C15.282356,1.85601365 15.0415868,1.82163338 14.8722143,1.95131045 C14.7028418,2.08098753 14.6690039,2.32561588 14.7966352,2.49770317 Z" id="Line-4-Copy"></path>
                    <path d="M11.9963648,3.84458653 L12.8122402,5.47149777 C12.9085213,5.66348886 13.1397567,5.73982608 13.328719,5.64200174 C13.5176813,5.5441774 13.5928143,5.30923557 13.4965332,5.11724449 L12.6806578,3.49033324 C12.5843767,3.29834216 12.3531412,3.22200493 12.1641789,3.31982928 C11.9752166,3.41765362 11.9000837,3.65259544 11.9963648,3.84458653 Z" id="Line-4-Copy-2"></path>
                    <path d="M0.0986356617,0.6512229 L1.30114366,2.00814975 C1.4430511,2.16828009 1.68585324,2.18120877 1.84345742,2.03702676 C2.0010616,1.89284475 2.01378632,1.64615085 1.87187888,1.48602051 L0.669370888,0.12909366 C0.527463446,-0.0310366831 0.284661303,-0.0439653628 0.127057122,0.100216646 C-0.0305470589,0.244398654 -0.04327178,0.491092557 0.0986356617,0.6512229 Z" id="Line-4" transform="translate(0.985257, 1.068622) scale(-1, 1) translate(-0.985257, -1.068622) "></path>
                    <path d="M2.50230142,2.49770317 L3.58383523,3.95595185 C3.71146657,4.12803914 3.95223574,4.16241941 4.12160824,4.03274234 C4.29098074,3.90306527 4.32481864,3.65843692 4.19718731,3.48634963 L3.11565349,2.02810094 C2.98802216,1.85601365 2.74725298,1.82163338 2.57788049,1.95131045 C2.40850799,2.08098753 2.37467009,2.32561588 2.50230142,2.49770317 Z" id="Line-4-Copy" transform="translate(3.349744, 2.992026) scale(-1, 1) translate(-3.349744, -2.992026) "></path>
                    <path d="M5.49728936,3.84458653 L6.31316476,5.47149777 C6.40944586,5.66348886 6.64068132,5.73982608 6.82964362,5.64200174 C7.01860592,5.5441774 7.09373887,5.30923557 6.99745778,5.11724449 L6.18158237,3.49033324 C6.08530127,3.29834216 5.85406581,3.22200493 5.66510351,3.31982928 C5.47614121,3.41765362 5.40100826,3.65259544 5.49728936,3.84458653 Z" id="Line-4-Copy-2" transform="translate(6.247374, 4.480916) scale(-1, 1) translate(-6.247374, -4.480916) "></path>
                    <path d="M9.11291127,4.23708612 L9.11291127,6.06301129 C9.11291127,6.27848792 9.28483393,6.45316625 9.49691127,6.45316625 C9.70898861,6.45316625 9.88091127,6.27848792 9.88091127,6.06301129 L9.88091127,4.23708612 C9.88091127,4.02160948 9.70898861,3.84693116 9.49691127,3.84693116 C9.28483393,3.84693116 9.11291127,4.02160948 9.11291127,4.23708612 Z" id="Line-4-Copy-3"></path>
                </g>
            </g>
        </g>
    </g>
</svg>