<?xml version="1.0" encoding="UTF-8" standalone="no"?>
<svg width="20px" height="15px" viewBox="0 0 20 15" version="1.1" xmlns="http://www.w3.org/2000/svg" xmlns:xlink="http://www.w3.org/1999/xlink">
    <!-- Generator: Sketch 47 (45396) - http://www.bohemiancoding.com/sketch -->
    <title>Group</title>
    <desc>Created with Sketch.</desc>
    <defs></defs>
    <g id="Colega-Inspirador" stroke="none" stroke-width="1" fill="none" fill-rule="evenodd">
        <g id="Pagina-de-resposta-eNPS-+-Colega" transform="translate(-875.000000, -396.000000)" fill="#FFFFFF">
            <g id="Group-11" transform="translate(861.000000, 390.000000)">
                <g id="Group" transform="translate(14.200000, 5.600000)">
                    <path d="M9.9272133,14.306852 C12.743714,14.2845291 16.119319,12.1191025 18.2812582,9.68501661 C15.7220095,6.9085941 12.8940143,5.10663257 9.94124476,5.04157076 C6.94145688,5.04157076 4.39380562,6.62220983 1.43766119,9.69116892 C3.96535629,12.4983748 7.22062522,14.3575713 9.9272133,14.306852 Z M0.746019974,10.2784092 C0.435480613,9.93353059 0.444413453,9.41631085 0.766687539,9.08173789 C4.03195002,5.69186396 6.76793765,4.14942529 9.94124476,4.14942529 C13.0575798,4.21786148 16.0857022,5.96548568 18.9658205,9.09000633 C19.2737594,9.42407638 19.2785362,9.92817759 18.9769803,10.2676937 C16.465797,13.0949867 12.8755114,15.1732741 9.93983647,15.198925 C6.980131,15.2521033 3.49233695,13.328412 0.746019974,10.2784092 Z" id="Combined-Shape" fill-rule="nonzero"></path>
                    <path d="M10.1189189,13.1908046 C8.25607738,13.1908046 6.74594595,11.72904 6.74594595,9.92586207 C6.74594595,8.1226841 8.25607738,6.66091954 10.1189189,6.66091954 C11.9817605,6.66091954 13.4918919,8.1226841 13.4918919,9.92586207 C13.4918919,11.72904 11.9817605,13.1908046 10.1189189,13.1908046 Z M10.1189189,12.2579639 C11.44952,12.2579639 12.5281853,11.2138463 12.5281853,9.92586207 C12.5281853,8.63787781 11.44952,7.59376026 10.1189189,7.59376026 C8.78831782,7.59376026 7.70965251,8.63787781 7.70965251,9.92586207 C7.70965251,11.2138463 8.78831782,12.2579639 10.1189189,12.2579639 Z" id="Oval-3" fill-rule="nonzero"></path>
                    <ellipse id="Oval-Copy-2" cx="10.6378378" cy="9.42356322" rx="1" ry="1"></ellipse>
                    <g id="Group-8" transform="translate(9.700000, 3.663218) scale(-1, -1) translate(-9.700000, -3.663218) translate(0.200000, 0.163218)" fill-rule="nonzero">
                        <path d="M17.1219437,0.644439328 L18.3244517,1.98723152 C18.4663591,2.14569384 18.7091612,2.15848785 18.8667654,2.01580773 C19.0243696,1.87312762 19.0370943,1.62900345 18.8951869,1.47054113 L17.6926789,0.127748934 C17.5507714,-0.0307133844 17.3079693,-0.0435073902 17.1503651,0.0991727223 C16.9927609,0.241852835 16.9800362,0.48597701 17.1219437,0.644439328 Z" id="Line-4"></path>
                        <path d="M14.7966352,2.47168542 L15.878169,3.91474402 C16.0058004,4.08503873 16.2465696,4.11906088 16.4159421,3.99073461 C16.5853146,3.86240834 16.6191525,3.6203282 16.4915211,3.45003349 L15.4099873,2.00697489 C15.282356,1.83668018 15.0415868,1.80265803 14.8722143,1.9309843 C14.7028418,2.05931057 14.6690039,2.30139071 14.7966352,2.47168542 Z" id="Line-4-Copy"></path>
                        <path d="M11.9963648,3.80453875 L12.8122402,5.414503 C12.9085213,5.60449418 13.1397567,5.68003623 13.328719,5.58323089 C13.5176813,5.48642555 13.5928143,5.25393104 13.4965332,5.06393986 L12.6806578,3.4539756 C12.5843767,3.26398443 12.3531412,3.18844238 12.1641789,3.28524772 C11.9752166,3.38205306 11.9000837,3.61454757 11.9963648,3.80453875 Z" id="Line-4-Copy-2"></path>
                        <path d="M0.0986356617,0.644439328 L1.30114366,1.98723152 C1.4430511,2.14569384 1.68585324,2.15848785 1.84345742,2.01580773 C2.0010616,1.87312762 2.01378632,1.62900345 1.87187888,1.47054113 L0.669370888,0.127748934 C0.527463446,-0.0307133844 0.284661303,-0.0435073902 0.127057122,0.0991727223 C-0.0305470589,0.241852835 -0.04327178,0.48597701 0.0986356617,0.644439328 Z" id="Line-4" transform="translate(0.985257, 1.057490) scale(-1, 1) translate(-0.985257, -1.057490) "></path>
                        <path d="M2.50230142,2.47168542 L3.58383523,3.91474402 C3.71146657,4.08503873 3.95223574,4.11906088 4.12160824,3.99073461 C4.29098074,3.86240834 4.32481864,3.6203282 4.19718731,3.45003349 L3.11565349,2.00697489 C2.98802216,1.83668018 2.74725298,1.80265803 2.57788049,1.9309843 C2.40850799,2.05931057 2.37467009,2.30139071 2.50230142,2.47168542 Z" id="Line-4-Copy" transform="translate(3.349744, 2.960859) scale(-1, 1) translate(-3.349744, -2.960859) "></path>
                        <path d="M5.49728936,3.80453875 L6.31316476,5.414503 C6.40944586,5.60449418 6.64068132,5.68003623 6.82964362,5.58323089 C7.01860592,5.48642555 7.09373887,5.25393104 6.99745778,5.06393986 L6.18158237,3.4539756 C6.08530127,3.26398443 5.85406581,3.18844238 5.66510351,3.28524772 C5.47614121,3.38205306 5.40100826,3.61454757 5.49728936,3.80453875 Z" id="Line-4-Copy-2" transform="translate(6.247374, 4.434239) scale(-1, 1) translate(-6.247374, -4.434239) "></path>
                        <path d="M9.11291127,4.1929498 L9.11291127,5.99985493 C9.11291127,6.21308701 9.28483393,6.38594577 9.49691127,6.38594577 C9.70898861,6.38594577 9.88091127,6.21308701 9.88091127,5.99985493 L9.88091127,4.1929498 C9.88091127,3.97971772 9.70898861,3.80685896 9.49691127,3.80685896 C9.28483393,3.80685896 9.11291127,3.97971772 9.11291127,4.1929498 Z" id="Line-4-Copy-3"></path>
                    </g>
                </g>
            </g>
        </g>
    </g>
</svg>