<?xml version="1.0" encoding="UTF-8" standalone="no"?>
<svg width="139px" height="46px" viewBox="0 0 139 46" version="1.1" xmlns="http://www.w3.org/2000/svg" xmlns:xlink="http://www.w3.org/1999/xlink">
    <!-- Generator: Sketch 45.2 (43514) - http://www.bohemiancoding.com/sketch -->
    <title>Group 5 Copy 4</title>
    <desc>Created with Sketch.</desc>
    <defs></defs>
    <g id="Apresentação-novo-logo" stroke="none" stroke-width="1" fill="none" fill-rule="evenodd">
        <g id="Group-5-Copy-4" transform="translate(2.000000, 3.000000)">
            <g id="Group">
                <path d="M11.4304084,0.0135338346 C20.0903856,0.0135338346 20.1861944,0.0135338346 29.1078278,0.0135338346 C33.1917794,0.0135338346 35.3006111,1.82215974 36.2174163,2.5154936 C37.1342215,3.20882746 39.8015265,5.89215272 40.1535988,10.0972278 C40.1535988,12.6196311 40.1535988,22.7190134 40.1535988,30.2042441 C39.7173765,33.993526 38.0200212,36.0406038 37.3251117,36.7635799 C36.6302021,37.4865559 34.5328891,39.8573743 30.4087929,40.3010099 C27.3579235,40.3010099 18.2359848,40.357465 10.0688835,40.357465 C5.65040445,39.8009562 3.59517653,37.6795495 2.40701534,36.2521933 C1.21885415,34.824837 0.295847769,32.9011921 0.0271723345,30.2042441 C0.0271723345,20.5027197 0.0271723345,22.2487658 0.0271723345,10.1800368 C0.152128268,7.36597885 1.85144594,4.00011028 4.34400198,2.19944405 C6.83655802,0.398777816 9.00867014,0.0135338346 11.4304084,0.0135338346 Z" id="Line" stroke="#FFFFFF" stroke-width="4.0392" stroke-linecap="square"></path>
                <path d="M28.2613585,33.8614556 C28.7208908,33.8614556 29.0901523,33.7786054 29.369154,33.6129025 C29.6481558,33.4471997 29.8697127,33.0826589 30.0338313,32.5192693 L33.1857422,24.0896049 C33.3498609,23.6587775 33.3334492,23.3190918 33.1365068,23.0705375 C32.9395644,22.8219833 32.611332,22.697708 32.1517997,22.697708 L30.3300915,22.697708 C29.4438506,22.697708 28.8858555,23.0953889 28.6560893,23.8907625 L27.5720635,27.4487877 C27.4735922,27.8133339 27.309476,27.9956043 27.0797099,27.9956043 C26.8499437,27.9956043 26.6858275,27.8133339 26.5873563,27.4487877 L20.3391903,8.42012215 C20.1094242,7.62474852 19.551429,7.22706767 18.6651882,7.22706767 L16.8434799,7.22706767 C16.3839476,7.22706767 16.0557152,7.35134294 15.8587728,7.5998972 C15.6618304,7.84845146 15.6454188,8.18813718 15.8095374,8.61896457 L24.1255884,32.5192693 C24.2897071,33.0826589 24.511264,33.4471997 24.7902658,33.6129025 C25.0692675,33.7786054 25.438529,33.8614556 25.8980613,33.8614556 L28.2613585,33.8614556 Z" id="v-copy" fill="#FFFFFF" transform="translate(24.497640, 20.544262) scale(-1, 1) translate(-24.497640, -20.544262) "></path>
                <path d="M12.8270221,9.87784831 C12.4107687,9.87784831 12.0762843,9.95289564 11.823559,10.1029925 C11.5708337,10.2530894 11.3701431,10.5832977 11.2214812,11.0936272 L8.23095242,19.4137143 C8.08229048,19.8039662 8.09715645,20.1116602 8.27555078,20.3368056 C8.45394511,20.561951 8.75126452,20.6745219 9.16751795,20.6745219 L10.8176572,20.6745219 C11.6204317,20.6745219 12.1258747,20.3142948 12.3340014,19.5938296 L13.4513991,15.6865694 C13.5405963,15.3563563 13.689256,15.1912521 13.8973827,15.1912521 C14.1055094,15.1912521 14.2541691,15.3563563 14.3433663,15.6865694 L15.6529912,19.5938296 C15.8611179,20.3142948 19.3942334,18.4679099 19.2133299,17.9950077 C18.6266531,16.4613676 17.7466379,14.1609074 16.5732842,11.0936272 C16.4246223,10.5832977 16.2239317,10.2530894 15.9712064,10.1029925 C15.7184811,9.95289564 15.3839968,9.87784831 14.9677433,9.87784831 L12.8270221,9.87784831 Z" id="v-copy-9" fill="#FFFFFF" transform="translate(13.674818, 15.276185) scale(-1, 1) rotate(-2.000000) translate(-13.674818, -15.276185) "></path>
                <ellipse id="Oval-29" fill="#FFFFFF" transform="translate(9.050989, 19.566383) scale(-1, 1) translate(-9.050989, -19.566383) " cx="9.05098873" cy="19.566383" rx="3.29274888" ry="3.32453226"></ellipse>
            </g>
            <g id="Group-5" transform="translate(49.547344, 1.678195)" fill="#FFFFFF">
                <path d="M8.0686712,29.5015038 C7.63900955,29.5015038 7.29375091,29.4244369 7.03288491,29.2703008 C6.77201891,29.1161646 6.56486372,28.7770703 6.41141313,28.2530075 L0.1046255,9.98796992 C-0.0488250877,9.58721604 -0.033480259,9.27124176 0.150660447,9.04003759 C0.334801152,8.80883343 0.641697725,8.69323308 1.07135937,8.69323308 L2.77465238,8.69323308 C3.60328556,8.69323308 4.12500973,9.0631542 4.33984055,9.80300752 L8.71316045,23.5364662 C8.8052308,23.8755656 8.95867909,24.0451128 9.17350991,24.0451128 C9.38834073,24.0451128 9.54178902,23.8755656 9.63385937,23.5364662 L14.0071793,9.80300752 C14.2220101,9.0631542 14.7437343,8.69323308 15.5723674,8.69323308 L17.2756604,8.69323308 C17.7053221,8.69323308 18.0122187,8.80883343 18.1963594,9.04003759 C18.3805001,9.27124176 18.3958449,9.58721604 18.2423943,9.98796992 L11.9356067,28.2530075 C11.7821561,28.7770703 11.5750009,29.1161646 11.3141349,29.2703008 C11.0532689,29.4244369 10.7080103,29.5015038 10.2783486,29.5015038 L8.0686712,29.5015038 Z M33.4339266,13.0860902 C33.4339266,12.777818 33.2804783,12.6236842 32.9735771,12.6236842 L29.5209561,12.6236842 C27.9864503,12.6236842 26.797226,13.101499 25.9532478,14.0571429 C25.1092696,15.0127867 24.6872868,16.1533768 24.6872868,17.4789474 L24.6872868,22.0567669 C24.6872868,23.2282013 25.0325454,24.1838309 25.7230731,24.9236842 C26.4136007,25.6635375 27.3726525,26.0334586 28.6002572,26.0334586 C29.4288904,26.0334586 30.1424249,25.8870315 30.7408822,25.5941729 C31.3393395,25.3013143 31.8380464,24.9082731 32.237018,24.4150376 C32.6359895,23.921802 32.9352137,23.3746271 33.1346994,22.7734962 C33.3341852,22.1723654 33.4339266,21.5481235 33.4339266,20.9007519 L33.4339266,13.0860902 Z M34.814975,29.5015038 C34.3853133,29.5015038 34.0477271,29.3627833 33.8022061,29.0853383 C33.5566852,28.8078933 33.4339266,28.4996258 33.4339266,28.1605263 C33.4339266,27.975563 33.3648748,27.8599626 33.2267693,27.8137218 C33.0886638,27.767481 32.9582327,27.8214278 32.8354723,27.9755639 C32.4058106,28.5612811 31.7690002,29.0390959 30.925022,29.4090226 C30.0810438,29.7789492 29.0606127,29.9639098 27.8636981,29.9639098 C26.789544,29.9639098 25.8074749,29.7635358 24.9174615,29.362782 C24.0274481,28.9620281 23.2602067,28.391733 22.6157142,27.6518797 C21.9712217,26.9120264 21.4648424,26.025757 21.096561,24.9930451 C20.7282796,23.9603332 20.5441416,22.8274498 20.5441416,21.5943609 L20.5441416,17.4789474 C20.5441416,16.2766857 20.7589692,15.1360956 21.1886309,14.0571429 C21.6182925,12.9781901 22.2244133,12.0456806 23.0070113,11.2595865 C23.7896093,10.4734923 24.7179714,9.84925043 25.7921255,9.38684211 C26.8662796,8.92443378 28.0478314,8.69323308 29.3368164,8.69323308 L36.1960233,8.69323308 C36.625685,8.69323308 36.9632712,8.81654012 37.2087922,9.06315789 C37.4543131,9.30977567 37.5770717,9.64887002 37.5770717,10.0804511 L37.5770717,28.1142857 C37.5770717,28.5458668 37.4543131,28.8849612 37.2087922,29.1315789 C36.9632712,29.3781967 36.625685,29.5015038 36.1960233,29.5015038 L34.814975,29.5015038 Z M43.4695449,29.5015038 C43.0398832,29.5015038 42.702297,29.3781967 42.456776,29.1315789 C42.2112551,28.8849612 42.0884965,28.5458668 42.0884965,28.1142857 L42.0884965,10.0804511 C42.0884965,9.64887002 42.2112551,9.30977567 42.456776,9.06315789 C42.702297,8.81654012 43.0398832,8.69323308 43.4695449,8.69323308 L44.8505932,8.69323308 C45.2802549,8.69323308 45.6178411,8.81654012 45.8633621,9.06315789 C46.108883,9.30977567 46.2316416,9.64887002 46.2316416,10.0804511 L46.2316416,28.1142857 C46.2316416,28.5458668 46.108883,28.8849612 45.8633621,29.1315789 C45.6178411,29.3781967 45.2802549,29.5015038 44.8505932,29.5015038 L43.4695449,29.5015038 Z M63.6328513,16.5541353 C63.6328513,15.3827009 63.2492306,14.4347781 62.4819777,13.7103383 C61.7147247,12.9858986 60.794035,12.6236842 59.7198809,12.6236842 L55.346561,12.6236842 C55.0396598,12.6236842 54.8862115,12.777818 54.8862115,13.0860902 L54.8862115,25.1086466 C54.8862115,25.4169188 55.0396598,25.5710526 55.346561,25.5710526 L59.7198809,25.5710526 C60.8861053,25.5710526 61.8298123,25.2088382 62.5510301,24.4843985 C63.2722478,23.7599588 63.6328513,22.8120359 63.6328513,21.6406015 L63.6328513,16.5541353 Z M52.1241147,40.1368421 C51.6944531,40.1368421 51.3568669,40.0135351 51.1113459,39.7669173 C50.865825,39.5202995 50.7430664,39.1812052 50.7430664,38.7496241 L50.7430664,10.0804511 C50.7430664,9.64887002 50.865825,9.30977567 51.1113459,9.06315789 C51.3568669,8.81654012 51.6944531,8.69323308 52.1241147,8.69323308 L59.7198809,8.69323308 C60.9167955,8.69323308 62.0139507,8.89360702 63.0113795,9.2943609 C64.0088084,9.69511479 64.8604463,10.2422898 65.566319,10.9359023 C66.2721918,11.6295147 66.8169332,12.4618372 67.2005596,13.4328947 C67.5841861,14.4039522 67.7759965,15.4443554 67.7759965,16.5541353 L67.7759965,21.6406015 C67.7759965,22.7503815 67.5765137,23.7907846 67.1775422,24.7618421 C66.7785706,25.7328996 66.2338292,26.5652221 65.5433016,27.2588346 C64.8527739,27.9524471 64.0241532,28.4996221 63.0574145,28.9003759 C62.0906758,29.3011298 61.039555,29.5015038 59.9040207,29.5015038 L55.346561,29.5015038 C55.0396598,29.5015038 54.8862115,29.6556376 54.8862115,29.9639098 L54.8862115,38.7496241 C54.8862115,39.1812052 54.7634529,39.5202995 54.517932,39.7669173 C54.272411,40.0135351 53.9348248,40.1368421 53.5051631,40.1368421 L52.1241147,40.1368421 Z M86.3280798,24.9699248 C86.6042909,25.2473698 86.7347219,25.5556374 86.7193768,25.8947368 C86.7040318,26.2338363 86.5736007,26.5575173 86.3280798,26.8657895 C85.7142774,27.63647 84.8089326,28.3454855 83.612018,28.9928571 C82.4151034,29.6402288 80.9880343,29.9639098 79.330768,29.9639098 C78.041783,29.9639098 76.8832485,29.7558291 75.8551295,29.3396617 C74.8270106,28.9234942 73.9446829,28.3454924 73.2081201,27.6056391 C72.4715573,26.8657858 71.9037986,26.0026365 71.5048271,25.0161654 C71.1058556,24.0296943 70.9063728,22.9815845 70.9063728,21.8718045 L70.9063728,16.4154135 C70.9063728,15.3056335 71.0828383,14.249817 71.4357747,13.2479323 C71.788711,12.2460476 72.3104352,11.3751917 73.0009629,10.6353383 C73.6914905,9.89548502 74.5354561,9.30977659 75.5328849,8.87819549 C76.5303137,8.44661438 77.6735035,8.23082707 78.9624884,8.23082707 C80.2514733,8.23082707 81.4023355,8.44661438 82.4151094,8.87819549 C83.4278833,9.30977659 84.2948661,9.89548502 85.0160838,10.6353383 C85.7373016,11.3751917 86.2897154,12.2460476 86.6733419,13.2479323 C87.0569684,14.249817 87.2487787,15.3056335 87.2487787,16.4154135 L87.2487787,19.1898496 C87.2487787,19.6214307 87.1260201,19.9605251 86.8804992,20.2071429 C86.6349782,20.4537606 86.297392,20.5770677 85.8677303,20.5770677 L75.5098674,20.5770677 C75.2029663,20.5770677 75.049518,20.7312015 75.049518,21.0394737 L75.049518,21.8718045 C75.049518,23.0432389 75.3947766,24.0296952 76.0853043,24.831203 C76.7758319,25.6327108 77.8576423,26.0334586 79.330768,26.0334586 C80.4969924,26.0334586 81.4023373,25.825378 82.0468298,25.4092105 C82.6913223,24.993043 83.1823568,24.6000018 83.5199481,24.2300752 C83.8575394,23.8909757 84.1951256,23.7291353 84.5327169,23.7445489 C84.8703082,23.7599625 85.1772048,23.9063896 85.4534158,24.1838346 L86.3280798,24.9699248 Z M83.1056336,16.4154135 C83.1056336,15.2439791 82.7833922,14.2421094 82.1388997,13.4097744 C81.4944072,12.5774394 80.435614,12.1612782 78.9624884,12.1612782 C77.5200529,12.1612782 76.5072942,12.5774394 75.924182,13.4097744 C75.3410697,14.2421094 75.049518,15.2439791 75.049518,16.4154135 L75.049518,16.6466165 C75.049518,16.9548888 75.2029663,17.1090226 75.5098674,17.1090226 L82.6452841,17.1090226 C82.9521853,17.1090226 83.1056336,16.9548888 83.1056336,16.6466165 L83.1056336,16.4154135 Z" id="vaipe"></path>
                <ellipse id="Oval-29-Copy-2" transform="translate(44.179367, 3.319743) scale(-1, 1) translate(-44.179367, -3.319743) " cx="44.1793669" cy="3.31974297" rx="3.22244624" ry="3.24487113"></ellipse>
            </g>
        </g>
    </g>
</svg>